<svg id="visual" viewBox="0 0 960 540" width="960" height="540" xmlns="http://www.w3.org/2000/svg" xmlns:xlink="http://www.w3.org/1999/xlink" version="1.1"><rect x="0" y="0" width="960" height="540" fill="#ffffff"></rect><defs><linearGradient id="grad1_0" x1="43.8%" y1="0%" x2="100%" y2="100%"><stop offset="14.444444444444446%" stop-color="#fbae3c" stop-opacity="1"></stop><stop offset="85.55555555555554%" stop-color="#fbae3c" stop-opacity="1"></stop></linearGradient></defs><defs><linearGradient id="grad1_1" x1="43.8%" y1="0%" x2="100%" y2="100%"><stop offset="14.444444444444446%" stop-color="#fbae3c" stop-opacity="1"></stop><stop offset="85.55555555555554%" stop-color="#ffffff" stop-opacity="1"></stop></linearGradient></defs><defs><linearGradient id="grad2_0" x1="0%" y1="0%" x2="56.3%" y2="100%"><stop offset="14.444444444444446%" stop-color="#fbae3c" stop-opacity="1"></stop><stop offset="85.55555555555554%" stop-color="#fbae3c" stop-opacity="1"></stop></linearGradient></defs><defs><linearGradient id="grad2_1" x1="0%" y1="0%" x2="56.3%" y2="100%"><stop offset="14.444444444444446%" stop-color="#ffffff" stop-opacity="1"></stop><stop offset="85.55555555555554%" stop-color="#fbae3c" stop-opacity="1"></stop></linearGradient></defs><g transform="translate(960, 0)"><path d="M0 270C-34.8 266 -69.5 262.1 -103.3 249.4C-137.1 236.8 -169.9 215.5 -186.7 186.7C-203.4 157.9 -204.1 121.5 -215.3 89.2C-226.5 56.8 -248.2 28.4 -270 0L0 0Z" fill="#ffd69f"></path><path d="M0 135C-17.4 133 -34.8 131 -51.7 124.7C-68.6 118.4 -85 107.7 -93.3 93.3C-101.7 78.9 -102 60.8 -107.6 44.6C-113.2 28.4 -124.1 14.2 -135 0L0 0Z" fill="#fbae3c"></path></g><g transform="translate(0, 540)"><path d="M0 -270C30.3 -256.5 60.7 -242.9 96.4 -232.8C132.2 -222.7 173.4 -216 190.9 -190.9C208.5 -165.9 202.3 -122.5 211.6 -87.6C220.8 -52.8 245.4 -26.4 270 0L0 0Z" fill="#ffd69f"></path><path d="M0 -135C15.2 -128.2 30.3 -121.5 48.2 -116.4C66.1 -111.3 86.7 -108 95.5 -95.5C104.2 -82.9 101.2 -61.3 105.8 -43.8C110.4 -26.4 122.7 -13.2 135 0L0 0Z" fill="#fbae3c"></path></g></svg>