<?xml version="1.0" encoding="utf-8"?>
<!-- Generator: Adobe Illustrator 27.5.0, SVG Export Plug-In . SVG Version: 6.00 Build 0)  -->
<svg version="1.1" id="_x31_" xmlns="http://www.w3.org/2000/svg" xmlns:xlink="http://www.w3.org/1999/xlink" x="0px" y="0px"
	 viewBox="0 0 430 450" style="enable-background:new 0 0 430 450;" xml:space="preserve">
<g>
	<linearGradient id="SVGID_1_" gradientUnits="userSpaceOnUse" x1="356.8405" y1="11.0165" x2="52.6557" y2="469.916">
		<stop  offset="0.0739" style="stop-color:#428CBD"/>
		<stop  offset="0.4112" style="stop-color:#51B0D3"/>
		<stop  offset="0.9929" style="stop-color:#6EF6FF"/>
	</linearGradient>
	<rect style="fill:url(#SVGID_1_);" width="430" height="450"/>
	<g>
		
			<linearGradient id="SVGID_00000007406752146833108230000009286542004654532783_" gradientUnits="userSpaceOnUse" x1="9.2377" y1="119.0423" x2="9.2377" y2="69.0009">
			<stop  offset="0" style="stop-color:#3A5D78"/>
			<stop  offset="0.9976" style="stop-color:#5385A2"/>
		</linearGradient>
		
			<rect x="6.935" y="37.936" style="fill:url(#SVGID_00000007406752146833108230000009286542004654532783_);" width="4.606" height="65.407"/>
		
			<linearGradient id="SVGID_00000111184902582289257530000000201915092909498519_" gradientUnits="userSpaceOnUse" x1="11.0339" y1="118.0912" x2="11.0339" y2="101.4108">
			<stop  offset="0" style="stop-color:#3A5D78"/>
			<stop  offset="0.9976" style="stop-color:#5385A2"/>
		</linearGradient>
		
			<rect y="97.456" style="fill:url(#SVGID_00000111184902582289257530000000201915092909498519_);" width="22.068" height="22.892"/>
		
			<linearGradient id="SVGID_00000080170236373824108530000012693569929761922693_" gradientUnits="userSpaceOnUse" x1="15.6396" y1="142.6214" x2="15.6396" y2="114.1664">
			<stop  offset="0" style="stop-color:#3A5D78"/>
			<stop  offset="0.9976" style="stop-color:#5385A2"/>
		</linearGradient>
		
			<rect y="113.808" style="fill:url(#SVGID_00000080170236373824108530000012693569929761922693_);" width="31.279" height="27.471"/>
		
			<linearGradient id="SVGID_00000040570580049117647370000012835448310841120936_" gradientUnits="userSpaceOnUse" x1="19.5873" y1="318.2566" x2="19.5873" y2="183.8174">
			<stop  offset="0" style="stop-color:#3A5D78"/>
			<stop  offset="0.9976" style="stop-color:#5385A2"/>
		</linearGradient>
		
			<rect y="134.738" style="fill:url(#SVGID_00000040570580049117647370000012835448310841120936_);" width="39.175" height="315.262"/>
	</g>
	<g>
		<g>
			<polygon style="fill:#FFFFFF;" points="332.251,103.86 331.896,109.357 326.01,200.747 325.816,203.743 322.977,205.796 
				290.326,229.405 287.885,231.168 288.194,233.617 291.221,257.481 292.07,264.172 294.859,286.162 295.27,289.419 
				295.109,289.632 293.448,291.813 247.611,351.958 245.411,354.846 242.16,352.936 231.182,346.477 225.794,343.311 
				212.523,335.508 210.335,334.22 208.585,336.153 152.774,397.756 148.648,402.312 141.418,410.291 138.766,413.218 
				135.878,411.302 106.921,392.112 104.802,390.709 103.483,392.753 75.619,435.954 72.141,441.347 66.559,450 64.996,450 
				71.003,440.686 74.78,434.832 102.45,391.935 104.417,388.884 107.586,390.983 136.355,410.046 138.549,411.501 140.542,409.3 
				147.602,401.507 151.919,396.746 207.667,335.211 210.078,332.549 213.092,334.321 226.429,342.164 231.857,345.355 
				242.69,351.729 245.072,353.129 246.687,351.01 292.372,291.058 293.899,289.056 293.553,286.332 290.773,264.408 
				289.941,257.834 286.862,233.549 286.483,230.563 289.487,228.391 322,204.884 324.543,203.046 324.717,200.322 330.58,109.321 
				330.938,103.778 			"/>
		</g>
		<polygon style="fill:#FFFFFF;" points="327.14,109.23 335.254,109.448 331.745,101.381 		"/>
		<ellipse style="fill:#FFFFFF;" cx="324.461" cy="203.251" rx="2.961" ry="2.943"/>
		<path style="fill:#FFFFFF;" d="M290.639,230.721c0,1.626-1.326,2.943-2.961,2.943c-1.635,0-2.961-1.318-2.961-2.943
			c0-1.626,1.326-2.943,2.961-2.943C289.313,227.777,290.639,229.095,290.639,230.721z"/>
		<ellipse style="fill:#FFFFFF;" cx="294.575" cy="289.091" rx="2.961" ry="2.943"/>
		<ellipse style="fill:#FFFFFF;" cx="245.073" cy="353.473" rx="2.961" ry="2.943"/>
		<ellipse style="fill:#FFFFFF;" cx="210.201" cy="333.688" rx="2.961" ry="2.943"/>
		<ellipse style="fill:#FFFFFF;" cx="138.813" cy="411.685" rx="2.961" ry="2.943"/>
		<ellipse style="fill:#FFFFFF;" cx="104.764" cy="390.101" rx="2.961" ry="2.943"/>
		<polygon style="fill:#FFFFFF;" points="287.559,264.998 295.543,263.538 290.428,256.37 		"/>
		<polygon style="fill:#FFFFFF;" points="223.83,346.868 232.449,346.412 228.233,338.905 		"/>
		<polygon style="fill:#FFFFFF;" points="152.024,404.914 152.919,396.381 144.801,399.345 		"/>
		<polygon style="fill:#FFFFFF;" points="67.943,438.905 74.948,442.982 75.782,434.233 		"/>
	</g>
	<g style="opacity:0.3;">
		<path style="fill:#FFFFFF;" d="M365.74,114.244h54.83l-11.624-2.398c0,0-1.535-7.195-4.167-6.323
			c-2.632,0.872-4.606,6.541-4.606,6.541s-3.29-5.887-5.483-0.654c-1.316-13.517-5.702-21.148-7.018,0.654
			C384.162,108.576,365.74,114.244,365.74,114.244z"/>
		<path style="fill:#FFFFFF;" d="M118.921,45.369h104.81L201.252,41.6c0,0-6.229-11.577-21.666-2.154
			c-11.917-11.308-13.271-5.654-13-0.269C157.649,38.908,118.921,45.369,118.921,45.369z"/>
		<path style="fill:#FFFFFF;" d="M141.651,155.996H58.227l28.123-3.524c0,0-0.945-9.162,3.072-7.988
			c4.018,1.175,10.162,7.518,10.162,7.518s13.471-8.928,16.307-6.343c2.836,2.584,3.781,6.108,3.781,6.108L141.651,155.996z"/>
	</g>
	
		<linearGradient id="SVGID_00000155865823138899246630000002845408176045918627_" gradientUnits="userSpaceOnUse" x1="312.884" y1="384.266" x2="354.9931" y2="384.266">
		<stop  offset="0.0024" style="stop-color:#5385A2"/>
		<stop  offset="0.8297" style="stop-color:#487393"/>
		<stop  offset="1" style="stop-color:#456F8F"/>
	</linearGradient>
	
		<rect x="312.884" y="318.532" style="fill:url(#SVGID_00000155865823138899246630000002845408176045918627_);" width="42.109" height="131.468"/>
	<g>
		<path style="fill:#FFFFFF;" d="M346.571,32.376h-27.422v3.131H309.13l0.013,0.466c0.016,0.544,0.445,13.368,5.039,17.523
			c1.905,1.723,3.973,2.236,5.762,2.236c1.828,0,3.363-0.535,4.137-0.866c1.824,1.784,4.055,3.03,6.521,3.507v12.819h-2.89
			c-0.695,0-1.26,0.626-1.26,1.396c0,0.77,0.565,1.396,1.26,1.396h10.295c0.695,0,1.26-0.626,1.26-1.396
			c0-0.77-0.565-1.396-1.26-1.396h-2.89V58.374c2.45-0.474,4.669-1.707,6.486-3.473c0.796,0.332,2.289,0.832,4.056,0.832
			c1.79,0,3.859-0.514,5.763-2.236c4.595-4.155,5.023-16.979,5.039-17.523l0.013-0.466h-9.904V32.376z M314.795,52.827
			c-3.84-3.474-4.598-14.061-4.721-16.414h9.075v6.187c0,4.499,1.63,8.628,4.264,11.565
			C321.827,54.782,318.044,55.764,314.795,52.827z M334.59,57.547l-0.383,0.061v14.49h3.801c0.189,0,0.349,0.225,0.349,0.49
			c0,0.266-0.16,0.49-0.349,0.49h-10.295c-0.189,0-0.349-0.225-0.349-0.49c0-0.266,0.16-0.49,0.349-0.49h3.801v-14.49l-0.383-0.061
			c-6.311-1.007-11.07-7.432-11.07-14.948v-9.318h25.6v9.318C345.66,50.115,340.901,56.541,334.59,57.547z M355.53,36.413
			c-0.122,2.353-0.878,12.939-4.721,16.414c-3.23,2.919-6.912,2.008-8.538,1.377c2.655-2.939,4.299-7.086,4.299-11.604v-6.187
			H355.53z"/>
		<polygon style="fill:#FFFFFF;" points="347.298,84.574 350.334,90.006 351.529,89.347 348.493,83.915 		"/>
		<polygon style="fill:#FFFFFF;" points="363.647,59.85 370.63,61.812 371.002,60.505 364.019,58.544 		"/>
		<polygon style="fill:#FFFFFF;" points="374.527,29.662 374.086,28.376 366.953,30.791 367.393,32.076 		"/>
		<polygon style="fill:#FFFFFF;" points="344.152,10.793 342.836,10.429 340.256,19.633 341.572,19.997 		"/>
		<polygon style="fill:#FFFFFF;" points="314.892,20.909 309.731,14.27 308.65,15.1 313.811,21.739 		"/>
		
			<rect x="290.13" y="29.139" transform="matrix(0.3114 -0.9503 0.9503 0.3114 168.2304 299.5603)" style="fill:#FFFFFF;" width="1.358" height="9.127"/>
		<polygon style="fill:#FFFFFF;" points="292.631,65.651 293.374,66.791 298.612,63.42 297.869,62.28 		"/>
		<polygon style="fill:#FFFFFF;" points="312.924,87.093 314.05,87.862 318.187,81.882 317.061,81.112 		"/>
		<polygon style="fill:#FFFFFF;" points="332.803,36.228 330.226,41.418 324.464,42.25 328.633,46.29 327.649,51.995 
			332.803,49.302 337.956,51.995 336.972,46.29 341.141,42.25 335.379,41.418 		"/>
	</g>
	<g>
		
			<radialGradient id="SVGID_00000109008648751403658390000015291729778289159598_" cx="293.4529" cy="75.108" r="13.4568" gradientTransform="matrix(1.0059 0 0 1 -1.6008 0)" gradientUnits="userSpaceOnUse">
			<stop  offset="0" style="stop-color:#EDA17E"/>
			<stop  offset="0.4407" style="stop-color:#F7B48A"/>
			<stop  offset="0.8752" style="stop-color:#FFC393"/>
		</radialGradient>
		<path style="fill:url(#SVGID_00000109008648751403658390000015291729778289159598_);" d="M294.558,75.914
			c-0.172-2.225-1.463-0.941-3.099,1.027c-1.635,1.968-8.349,7.786-8.349,8.471c0,0.685,1.205,1.198,1.205,1.198L294.558,75.914z"/>
		<path style="fill:#FFC393;" d="M283.713,85.412c2.754-3.337,8.521-7.102,10.415-9.583c1.894-2.481,2.324-0.428,1.033,1.711
			c-1.291,2.139-4.476,4.877-4.734,5.818s2.84,0.513,4.476,0.428c1.635-0.086,1.98,1.626,1.721,2.054
			c-0.258,0.428-2.41-0.171-3.787-0.171c-1.377,0-1.721,0.941-2.926,1.968c-1.205,1.027-3.959,1.54-3.959,1.54L283.713,85.412z"/>
		<path style="fill:#2C2E3A;" d="M167.218,254.791l-2.876,5.096l2.251,2.734l1.5-0.622l-0.75,1.492c0,0,0.875,2.362,1.875,4.102
			c1,1.74,4.048,1.705,4.548,1.581c0.5-0.124,1-1.367,1-1.74s-2.173-0.96-3.048-2.078c-0.875-1.119-1.125-3.356-1.125-4.226
			s1.25-3.978,1.25-3.978L167.218,254.791z"/>
		<path style="fill:#2C2E3A;" d="M225.096,251.902l-0.903,4.94l3.529,0.642l0.484-0.994l0.678,0.994c0,0,6.685,0.61,8.263,0.684
			c0.711,0.033,1.012-1.935,0.151-2.191c-1.198-0.357-5.467-0.418-5.975-0.783c-0.508-0.365-1.025-3.228-1.025-3.228
			L225.096,251.902z"/>
		
			<radialGradient id="SVGID_00000005968864000029300590000011829849922441412781_" cx="219.6348" cy="168.5243" r="34.6945" gradientTransform="matrix(1.0059 0 0 1 -1.6008 0)" gradientUnits="userSpaceOnUse">
			<stop  offset="0.2262" style="stop-color:#343845"/>
			<stop  offset="1" style="stop-color:#444754"/>
		</radialGradient>
		<path style="fill:url(#SVGID_00000005968864000029300590000011829849922441412781_);" d="M201.197,182.443
			c-3.213,5.933-3.443,12.55-3.443,12.55s-8.952,21.22-9.87,23.274c-0.918,2.054-20.887,35.595-22.264,36.964
			c0.918,2.51,6.197,5.476,8.034,5.02c9.181-10.496,21.576-28.522,26.625-36.052c5.05-7.53,15.378-27.609,15.378-27.609
			l12.395,20.307c0,0-4.82,35.139-4.361,36.508c2.066,0.913,8.493-0.456,8.493-0.456s8.722-31.944,8.263-39.246
			c-0.459-7.301-12.394-26.696-12.394-26.696s-8.722-3.194-9.411-3.194S201.197,182.443,201.197,182.443z"/>
		<polygon style="fill:#EBA87F;" points="217.644,121.383 218.96,107.648 231.461,110.155 233.106,119.312 229.659,125.514 		"/>
		
			<radialGradient id="SVGID_00000142856477791591846620000005585341658786014099_" cx="199.3265" cy="150.2705" r="19.6285" gradientTransform="matrix(1.0059 0 0 1 -1.6008 0)" gradientUnits="userSpaceOnUse">
			<stop  offset="0.2262" style="stop-color:#343845"/>
			<stop  offset="1" style="stop-color:#444754"/>
		</radialGradient>
		<path style="fill:url(#SVGID_00000142856477791591846620000005585341658786014099_);" d="M202,142.512
			c0,0,5.624,8.671,6.656,11.979c1.033,3.309-8.148,25.213-8.607,27.951c-0.459,2.738,17.903,9.583,21.576,3.651
			c3.672-5.933,9.181-25.099,9.296-27.723c0.115-2.624-9.984-25.327-9.984-25.327l-4.935-3.879L202,142.512z"/>
		<path style="fill:#444754;" d="M209.804,124.943c0,0-26.166,14.033-28.232,17.227c-2.066,3.194-12.509,30.575-12.624,31.26
			c1.607,1.027,6.656,2.282,6.771,1.939c0.115-0.342,12.509-25.327,12.968-25.555c0.459-0.228,16.526-7.416,20.428-10.04
			c3.902-2.624,7.46-7.758,7.46-7.758L209.804,124.943z"/>
		<path style="fill:#444754;" d="M222.314,183.47c-0.574,3.879-0.803,4.221,0,4.906c0.803,0.684,6.771-0.114,8.148-1.711
			c1.377-1.597,8.952-21.676,11.017-32.971c2.066-11.295,3.099-22.475,3.099-22.475s18.133-16.428,23.871-22.589
			c5.738-6.161,18.707-18.938,18.707-18.938s-2.525-4.792-4.017-5.362c-3.099,1.825-19.395,15.63-22.838,17.912
			c-3.443,2.282-22.723,16.543-22.723,16.543s-2.066,7.53-1.951,9.697c0.115,2.168-5.394,30.005-6.656,32.743
			C227.708,163.961,222.314,183.47,222.314,183.47z"/>
		<path style="fill:#DAD7E6;" d="M214.739,126.312c4.017,4.792,5.05,3.879,7.689,9.583s8.148,18.368,8.263,22.817
			c2.41-7.302,4.361-18.254,4.59-23.274c0.23-5.02,0.115-8.557,0.115-8.557l1.033-5.932l-7.804,2.852c0,0-12.05,0.228-12.05,0.57
			C216.575,124.715,214.739,126.312,214.739,126.312z"/>
		<polygon style="fill:#D93D3D;" points="225.412,128.138 230.232,130.99 233.102,124.829 228.626,123.802 		"/>
		<path style="fill:#D93D3D;" d="M233.646,150.89c-0.933,2.81-1.938,5.521-2.954,7.824c-0.355-1.164-0.844-2.406-1.415-3.679
			c0.089-0.599,0.176-1.181,0.244-1.619c0.065-0.397,0.114-0.678,0.138-0.749c0.034-0.103,0.2-1.095,0.334-2.779
			c0.32-3.974,0.465-11.815-1.711-20.95c0,0,0.575-3.423,2.41-0.229c0.988,1.722,1.88,9.535,2.489,16.432
			c0.09,1.013,0.172,2.006,0.251,2.957C233.508,149.083,233.584,150.021,233.646,150.89z"/>
		<path style="fill:#2C2E3A;" d="M234.708,171.376c1.607,0.456,3.099-2.168,3.099-2.168S236.774,175.826,234.708,171.376z"/>
		<path style="fill:#2C2E3A;" d="M210.263,167.726c-3.902-0.57-4.935-2.624-4.935-2.624S204.64,171.148,210.263,167.726z"/>
		<path style="fill:#2C2E3A;" d="M232.764,163.604c-0.143,0.605-0.632,1.009-1.093,0.901c-0.46-0.108-0.717-0.686-0.573-1.291
			c0.143-0.605,0.633-1.009,1.093-0.901C232.651,162.421,232.907,162.999,232.764,163.604z"/>
		<path style="fill:#2C2E3A;" d="M229.206,174.443c-0.143,0.605-0.633,1.009-1.093,0.901c-0.46-0.108-0.717-0.686-0.573-1.291
			c0.143-0.605,0.632-1.009,1.093-0.901C229.093,173.259,229.35,173.837,229.206,174.443z"/>
		<g>
			
				<radialGradient id="SVGID_00000049919374770895739500000007882435198231081378_" cx="4404.1431" cy="1967.9927" r="2.6652" gradientTransform="matrix(-0.9588 -0.3026 -0.3044 0.9531 4994.4043 -365.8295)" gradientUnits="userSpaceOnUse">
				<stop  offset="0" style="stop-color:#EDA17E"/>
				<stop  offset="0.4407" style="stop-color:#F7B48A"/>
				<stop  offset="0.8752" style="stop-color:#FFC393"/>
			</radialGradient>
			<path style="fill:url(#SVGID_00000049919374770895739500000007882435198231081378_);" d="M174.69,173.527
				c0,0,0.447,3.332,0.421,3.973c-0.027,0.642-1.649,1.489-2.537,1.8c-0.888,0.311-1.549-1.612-1.543-2.497
				c0.007-0.884,1.286-4.026,1.286-4.026L174.69,173.527z"/>
			<g>
				<path style="fill:#313C52;" d="M166.886,179.518c0,0,0.299-3.701,0.873-4.354s7.254,1.706,7.551,2.3
					c0.298,0.594-1.419,4.348-1.419,4.348l-0.474-0.233c0,0,1.202-2.999,1.146-3.684c-0.055-0.685-5.486-1.899-6.026-1.735
					c-0.54,0.163-1.046,3.465-1.046,3.465L166.886,179.518z"/>
				<polygon style="fill:#9C9C9C;" points="168.869,179.405 165.93,178.477 165.357,180.27 168.296,181.198 				"/>
				<polygon style="fill:#9C9C9C;" points="175.198,181.403 172.259,180.475 171.686,182.268 174.626,183.196 				"/>
				<polygon style="fill:#313C52;" points="156.048,176.352 149.399,197.167 177.047,205.894 183.695,185.079 				"/>
				<path style="fill:#7B7B7B;" d="M171.911,204.273l1.178,0.372c0.128-0.378,0.373-1.354-0.112-2.364L171.911,204.273z"/>
				<path style="fill:#7B7B7B;" d="M178.56,183.458l1.526,0.482c-0.114,0.378-1.005,1.762-1.984,2.301L178.56,183.458z"/>
				<polygon style="fill:#606776;" points="156.046,176.352 149.398,197.166 172.301,204.395 178.949,183.581 				"/>
				<path style="fill:#7B7B7B;" d="M175.883,205.526l1.164,0.368l0.629-1.968C176.967,204.377,176.358,204.974,175.883,205.526z"/>
				<path style="fill:#9C9C9C;" d="M170.968,203.975l1.333,0.421l0.676-2.115C172.178,202.542,171.46,203.314,170.968,203.975z"/>
				<path style="fill:#7B7B7B;" d="M182.24,184.62c0.094,0.61,0.314,1.526,0.843,2.376l0.612-1.917L182.24,184.62z"/>
				<path style="fill:#9C9C9C;" d="M150.063,195.084l-0.665,2.082l1.292,0.408C150.67,196.769,150.536,195.759,150.063,195.084z"/>
				<path style="fill:#9C9C9C;" d="M156.046,176.352l-0.84,2.631c0.99-0.359,1.849-1.478,2.306-2.169L156.046,176.352z"/>
				<path style="fill:#9C9C9C;" d="M177.443,183.106c-0.028,0.838,0.024,2.281,0.657,3.134l0.849-2.659L177.443,183.106z"/>
			</g>
			<path style="fill:#FFC393;" d="M174.777,173.813c-1.25,2.158-1.636,5.516-2.299,5.92c-0.663,0.405-0.993-0.655-0.993-0.655
				s-2.087,0.434-2.8-0.726c-0.713-1.16-0.495-2.639-0.313-3.069c0.182-0.43,2.316-2.505,2.316-2.505L174.777,173.813z"/>
		</g>
		<g>
			<path style="fill:#FFC393;" d="M225.793,85.197c1.936,0.093,3.716,1.116,4.776,2.729c1.863,2.837,2.658,5.602,2.84,6.511
				c0.227,1.133,1.255,3.854,2.667,5.858c1.413,2.004,1.136,12.494,0.579,13.585c-0.557,1.091-5.491,3.122-6.842,2.894
				c-1.351-0.228-6.778-1.221-7.993-2.511c-1.215-1.29-7.253-10.396-7.253-10.396s-3.031-5.062-3.923-7.977
				c-0.892-2.915,2.216-6.581,2.216-6.581s3.385-3.255,7.653-3.818C222.806,85.188,224.525,85.135,225.793,85.197z"/>
			<path style="fill:#FFFFFF;" d="M225.781,101.025c-0.152,0.105-0.312,0.206-0.477,0.292c-0.096,0.056-0.193,0.106-0.295,0.155
				c-0.398,0.198-0.82,0.359-1.234,0.486c-0.162,0.051-0.322,0.097-0.478,0.136c-0.035,0.009-0.07,0.018-0.103,0.027
				c-0.221,0.055-0.438,0.106-0.645,0.147c-0.984,0.196-1.726,0.231-1.726,0.231s-0.425-1.211-0.03-1.599
				c0.112-0.11,0.451-0.286,0.886-0.481c0.25-0.11,0.53-0.225,0.816-0.342l0.003-0.001c0.079-0.031,0.158-0.062,0.238-0.09
				c0.205-0.082,0.415-0.159,0.611-0.231c0.358-0.123,0.681-0.227,0.918-0.291c0.059-0.014,0.113-0.027,0.16-0.037
				c0.112-0.027,0.193-0.036,0.223-0.024C224.899,99.496,225.781,101.025,225.781,101.025z"/>
			<path style="fill:#E69675;" d="M227.654,97.786c0.663,2.726,3.169,5.216,3.664,5.693c0.495,0.477-2.633,1.982-4.231,1.462
				c1.649,0.047,3.448-1.172,3.441-1.361C230.522,103.39,227.87,101.36,227.654,97.786z"/>
			<path style="fill:#FFFFFF;" d="M233.435,98.516c0,0-0.119,0.071-0.352,0.185c-0.147,0.074-0.34,0.164-0.576,0.267
				c-0.228,0.099-0.495,0.206-0.801,0.32l-0.054,0.019c-0.216,0.079-0.45,0.162-0.701,0.24c-0.198,0.067-0.409,0.131-0.632,0.191
				l-0.091,0.022c-0.225,0.063-0.455,0.122-0.699,0.176c0,0-0.58-1.574-0.385-1.902c0.056-0.087,0.286-0.197,0.601-0.314
				c0.139-0.052,0.294-0.104,0.455-0.157c0.207-0.067,0.429-0.138,0.655-0.199c0.029-0.01,0.061-0.018,0.091-0.025
				c0.368-0.104,0.727-0.195,1-0.259c0.227-0.048,0.402-0.081,0.471-0.086c0.158-0.008,0.384,0.302,0.583,0.644
				c0.001,0.003,0.001,0.003,0.002,0.006C233.237,98.059,233.435,98.516,233.435,98.516z"/>
			<path style="fill:#4B5477;" d="M232.998,97.638c0.001,0.003,0.001,0.003,0.002,0.006c0.131,0.369,0.156,0.744,0.084,1.056
				c-0.147,0.074-0.34,0.164-0.576,0.267c-0.228,0.099-0.495,0.206-0.801,0.32l-0.054,0.019c-0.292-0.197-0.549-0.532-0.698-0.949
				c-0.122-0.343-0.154-0.693-0.1-0.993c0.029-0.01,0.061-0.018,0.091-0.025c0.368-0.104,0.727-0.195,1-0.259
				c0.227-0.048,0.402-0.081,0.471-0.086C232.573,96.986,232.799,97.297,232.998,97.638z"/>
			<path style="fill:#4B5477;" d="M225.245,100.367c0.114,0.321,0.13,0.654,0.059,0.95c-0.096,0.056-0.193,0.106-0.295,0.155
				c-0.398,0.198-0.82,0.359-1.234,0.486c-0.162,0.051-0.322,0.097-0.478,0.136c-0.272-0.186-0.496-0.474-0.621-0.823
				c-0.161-0.451-0.127-0.916,0.059-1.285c0.205-0.082,0.415-0.159,0.611-0.231c0.358-0.123,0.681-0.227,0.918-0.291
				c0.059-0.014,0.113-0.027,0.16-0.037C224.785,99.6,225.09,99.933,225.245,100.367z"/>
			<path style="fill:#673F39;" d="M224.757,97.175c-2.553,0.591-6.98,2.555-6.98,2.555s-0.292-1.926,0.068-2.555
				c0.36-0.629,5.557-2.624,5.557-2.624S224.562,96.366,224.757,97.175z"/>
			<path style="fill:#673F39;" d="M226.822,92.968c0,0,0.782,2.362,1.064,2.917c2.397-0.791,6.308-0.91,6.273-1.036
				s-0.549-1.521-1.15-1.99C232.408,92.391,226.822,92.968,226.822,92.968z"/>
			<path style="fill:#673F39;" d="M212.749,91.377c3.965-2.755,15.041-4.606,17.512-4.875c2.471-0.268-0.015-1.532,0.101-1.609
				c0.115-0.076,2.539-0.513,2.329-1.766c-0.21-1.253-3.892-1.421-3.892-1.421s0.582-1.017,0.135-1.483
				c-0.447-0.465-3.434-0.914-9.729,1.303c1.357-1.997-5.414,0.801-8.867,3.597c-3.453,2.796-2.41,5.583-1.559,6.525
				c-1.512,3.078-0.881,5.526-0.332,7.183c0.549,1.657,5.637,6.908,5.637,6.908l2.198,1.267l1.547-1.145c0,0-5.322-6.648-5.81-8.412
				C211.531,95.685,212.749,91.377,212.749,91.377z"/>
			<path style="fill:#FFC393;" d="M217.199,106.323c-2.308-1.705-5.344-1.257-4.317,1.222c1.027,2.479,7.234,5.717,6.282,2.487
				C218.469,107.674,217.199,106.323,217.199,106.323z"/>
			<path style="fill:#E69675;" d="M214.167,107.406c0.292-2.033,3.743,0.718,3.364,2.435
				C217.026,108.323,214.956,106.553,214.167,107.406z"/>
			<path style="fill:#E69675;" d="M232.026,106.53c-3.368,1.462-8.135,0.822-8.135,0.822S229.062,109.78,232.026,106.53z"/>
			<path style="fill:#673F39;" d="M224.681,99.14l0.093,0.336c0,0-3.813,1.222-4.137,1.913
				C220.19,100.427,224.681,99.14,224.681,99.14z"/>
			<path style="fill:#673F39;" d="M232.415,96.995c-1.536,0.226-3.341,1.156-3.341,1.156l-0.165-0.377
				C228.909,97.774,232.17,96.311,232.415,96.995z"/>
		</g>
		<polygon style="fill:#EDECF5;" points="228.626,123.802 225.183,130.876 213.133,123.802 215.657,119.695 		"/>
		<polygon style="fill:#EDECF5;" points="228.626,123.802 234.938,126.54 235.512,119.125 233.331,117.642 		"/>
		<path style="fill:#606578;" d="M230.692,158.714c-0.355-1.164-0.844-2.406-1.415-3.679c-3.13-6.948-8.807-14.806-9.489-16.059
			c-0.802-1.482,1.033-5.021,1.033-5.021s-3.557,0.229-4.82-0.798c-1.26-1.027-7.344-8.327-7.344-8.327l4.018-2.512
			c1.095,0.921,2.159,1.91,3.185,2.957c6.858,6.969,12.15,16.432,14.133,24.612C230.774,153.104,231.043,156.126,230.692,158.714z"
			/>
		<path style="fill:#606578;" d="M233.646,150.89c-0.933,2.81-1.938,5.521-2.954,7.824c0.633-2.228,1.639-7.335,2.489-13.574
			c0.988-7.235,1.766-15.997,1.515-23.558c-0.041-1.277-0.11-2.519-0.217-3.713c0,0,2.754-0.455,3.212,0.116
			c0.461,0.568,0.806,5.134,0.575,6.845c-0.231,1.711-2.41,3.193-2.41,3.193s2.296,0.572,2.524,3.31
			C238.552,133.38,236.414,142.57,233.646,150.89z"/>
	</g>
	<g>
		
			<radialGradient id="SVGID_00000044160169855506707440000000533210683004306101_" cx="244.4135" cy="267.1642" r="32.6747" gradientTransform="matrix(1.0059 0 0 1 -1.6008 0)" gradientUnits="userSpaceOnUse">
			<stop  offset="0" style="stop-color:#DE9776"/>
			<stop  offset="0.2664" style="stop-color:#E39D7A"/>
			<stop  offset="0.6373" style="stop-color:#F0AF86"/>
			<stop  offset="0.9347" style="stop-color:#FFC393"/>
		</radialGradient>
		<path style="fill:url(#SVGID_00000044160169855506707440000000533210683004306101_);" d="M197.084,289.099
			c0,0,51.54-18.314,56.584-20.276c5.044-1.962-2.632-11.119-8.115-11.555c-5.483-0.436-19.081,3.706-19.081,3.706L197.084,289.099z
			"/>
		
			<radialGradient id="SVGID_00000176014581432725183170000016418207917819437750_" cx="326.8257" cy="232.3367" r="203.0718" gradientTransform="matrix(1.0059 0 0 1 -1.6008 0)" gradientUnits="userSpaceOnUse">
			<stop  offset="0" style="stop-color:#EDA17E"/>
			<stop  offset="0.3153" style="stop-color:#F0A782"/>
			<stop  offset="0.7545" style="stop-color:#FABA8D"/>
			<stop  offset="0.9347" style="stop-color:#FFC393"/>
		</radialGradient>
		<path style="fill:url(#SVGID_00000176014581432725183170000016418207917819437750_);" d="M192.807,270.131
			c14.804-6.868,41.122-14.063,46.386-11.773c5.264,2.289,5.264,7.522,4.606,9.157c-0.658,1.635-46.715,23.22-64.48,30.741
			S103.325,325.4,103.325,325.4l0.987-14.717L192.807,270.131z"/>
		
			<linearGradient id="SVGID_00000083774020085975837930000003132513617011106707_" gradientUnits="userSpaceOnUse" x1="127.6047" y1="292.9261" x2="179.938" y2="274.5928">
			<stop  offset="0" style="stop-color:#FFC393"/>
			<stop  offset="1" style="stop-color:#FFD3A1"/>
		</linearGradient>
		<path style="fill:url(#SVGID_00000083774020085975837930000003132513617011106707_);" d="M78.323,299.891
			c18.752-30.087,48.689-28.125,64.48-26.49c15.791,1.635,40.464-8.176,47.044-6.868c6.579,1.308,7.238,9.484,1.974,14.063
			c-5.264,4.579-35.53,9.484-50.005,17.006c-14.475,7.522-38.49,27.798-38.49,27.798L78.323,299.891z"/>
		<polygon style="fill:#EDECF5;" points="55.623,297.384 69.002,285.828 109.356,330.087 97.733,341.861 		"/>
		
			<linearGradient id="SVGID_00000023967935177087082690000009159337770602332596_" gradientUnits="userSpaceOnUse" x1="50.7178" y1="394.5732" x2="6.2411" y2="346.8261">
			<stop  offset="0" style="stop-color:#343845"/>
			<stop  offset="1" style="stop-color:#444754"/>
		</linearGradient>
		<polygon style="fill:url(#SVGID_00000023967935177087082690000009159337770602332596_);" points="102.638,344.669 0,445.768 
			0,338.573 52.307,291.692 		"/>
		<path style="fill:#2C2E3A;" d="M45.714,313.586c-2.598,2.583-6.012,3.377-7.625,1.773c-1.613-1.603-0.814-4.997,1.784-7.58
			c2.598-2.583,6.012-3.377,7.625-1.773C49.111,307.61,48.312,311.004,45.714,313.586z"/>
		<path style="fill:#2C2E3A;" d="M25.153,332.064c-2.598,2.583-6.012,3.377-7.625,1.773c-1.613-1.603-0.814-4.997,1.784-7.58
			c2.598-2.583,6.012-3.377,7.625-1.774C28.55,326.087,27.751,329.481,25.153,332.064z"/>
	</g>
	
		<linearGradient id="SVGID_00000080928557155816773850000017918638582150826680_" gradientUnits="userSpaceOnUse" x1="391.1806" y1="257.7036" x2="391.1806" y2="423.8424">
		<stop  offset="0.0024" style="stop-color:#5385A2"/>
		<stop  offset="0.8297" style="stop-color:#487393"/>
		<stop  offset="1" style="stop-color:#456F8F"/>
	</linearGradient>
	
		<rect x="352.361" y="239.389" style="fill:url(#SVGID_00000080928557155816773850000017918638582150826680_);" width="77.639" height="210.611"/>
	
		<linearGradient id="SVGID_00000154408406239171841700000012692311841407970181_" gradientUnits="userSpaceOnUse" x1="345.1238" y1="237.1003" x2="430" y2="237.1003">
		<stop  offset="0.0024" style="stop-color:#5385A2"/>
		<stop  offset="0.8297" style="stop-color:#487393"/>
		<stop  offset="1" style="stop-color:#456F8F"/>
	</linearGradient>
	
		<rect x="345.124" y="228.924" style="fill:url(#SVGID_00000154408406239171841700000012692311841407970181_);" width="84.876" height="16.352"/>
</g>
</svg>
