<svg id="visual" viewBox="0 0 900 600" width="900" height="600" xmlns="http://www.w3.org/2000/svg" xmlns:xlink="http://www.w3.org/1999/xlink" version="1.1"><rect x="0" y="0" width="900" height="600" fill="#ffffff"></rect><defs><linearGradient id="grad1_0" x1="33.3%" y1="100%" x2="100%" y2="0%"><stop offset="20%" stop-color="#ffce05" stop-opacity="1"></stop><stop offset="80%" stop-color="#ffce05" stop-opacity="1"></stop></linearGradient></defs><defs><linearGradient id="grad1_1" x1="33.3%" y1="100%" x2="100%" y2="0%"><stop offset="20%" stop-color="#ffce05" stop-opacity="1"></stop><stop offset="80%" stop-color="#ffda60" stop-opacity="1"></stop></linearGradient></defs><defs><linearGradient id="grad1_2" x1="33.3%" y1="100%" x2="100%" y2="0%"><stop offset="20%" stop-color="#ffe697" stop-opacity="1"></stop><stop offset="80%" stop-color="#ffda60" stop-opacity="1"></stop></linearGradient></defs><defs><linearGradient id="grad1_3" x1="33.3%" y1="100%" x2="100%" y2="0%"><stop offset="20%" stop-color="#ffe697" stop-opacity="1"></stop><stop offset="80%" stop-color="#fff2cb" stop-opacity="1"></stop></linearGradient></defs><defs><linearGradient id="grad1_4" x1="33.3%" y1="100%" x2="100%" y2="0%"><stop offset="20%" stop-color="#ffffff" stop-opacity="1"></stop><stop offset="80%" stop-color="#fff2cb" stop-opacity="1"></stop></linearGradient></defs><defs><linearGradient id="grad2_0" x1="0%" y1="100%" x2="66.7%" y2="0%"><stop offset="20%" stop-color="#ffce05" stop-opacity="1"></stop><stop offset="80%" stop-color="#ffce05" stop-opacity="1"></stop></linearGradient></defs><defs><linearGradient id="grad2_1" x1="0%" y1="100%" x2="66.7%" y2="0%"><stop offset="20%" stop-color="#ffda60" stop-opacity="1"></stop><stop offset="80%" stop-color="#ffce05" stop-opacity="1"></stop></linearGradient></defs><defs><linearGradient id="grad2_2" x1="0%" y1="100%" x2="66.7%" y2="0%"><stop offset="20%" stop-color="#ffda60" stop-opacity="1"></stop><stop offset="80%" stop-color="#ffe697" stop-opacity="1"></stop></linearGradient></defs><defs><linearGradient id="grad2_3" x1="0%" y1="100%" x2="66.7%" y2="0%"><stop offset="20%" stop-color="#fff2cb" stop-opacity="1"></stop><stop offset="80%" stop-color="#ffe697" stop-opacity="1"></stop></linearGradient></defs><defs><linearGradient id="grad2_4" x1="0%" y1="100%" x2="66.7%" y2="0%"><stop offset="20%" stop-color="#fff2cb" stop-opacity="1"></stop><stop offset="80%" stop-color="#ffffff" stop-opacity="1"></stop></linearGradient></defs><g transform="translate(900, 600)"><path d="M-297.5 0C-273.5 -42.4 -249.6 -84.8 -227.8 -131.5C-206 -178.2 -186.3 -229.2 -148.7 -257.6C-111.1 -286 -55.6 -291.7 0 -297.5L0 0Z" fill="#fff8e5"></path><path d="M-238 0C-218.8 -33.9 -199.6 -67.8 -182.2 -105.2C-164.8 -142.6 -149.1 -183.4 -119 -206.1C-88.9 -228.8 -44.5 -233.4 0 -238L0 0Z" fill="#ffecb1"></path><path d="M-178.5 0C-164.1 -25.4 -149.7 -50.9 -136.7 -78.9C-123.6 -106.9 -111.8 -137.5 -89.2 -154.6C-66.7 -171.6 -33.3 -175 0 -178.5L0 0Z" fill="#ffe07c"></path><path d="M-119 0C-109.4 -17 -99.8 -33.9 -91.1 -52.6C-82.4 -71.3 -74.5 -91.7 -59.5 -103C-44.5 -114.4 -22.2 -116.7 0 -119L0 0Z" fill="#ffd440"></path><path d="M-59.5 0C-54.7 -8.5 -49.9 -17 -45.6 -26.3C-41.2 -35.6 -37.3 -45.8 -29.7 -51.5C-22.2 -57.2 -11.1 -58.3 0 -59.5L0 0Z" fill="#ffce05"></path></g><g transform="translate(0, 0)"><path d="M297.5 0C293.9 59.4 290.4 118.7 257.6 148.7C224.8 178.7 162.8 179.3 115 199.2C67.2 219.1 33.6 258.3 0 297.5L0 0Z" fill="#fff8e5"></path><path d="M238 0C235.1 47.5 232.3 95 206.1 119C179.9 143 130.2 143.4 92 159.3C53.8 175.3 26.9 206.6 0 238L0 0Z" fill="#ffecb1"></path><path d="M178.5 0C176.4 35.6 174.2 71.2 154.6 89.2C134.9 107.2 97.7 107.6 69 119.5C40.3 131.4 20.2 155 0 178.5L0 0Z" fill="#ffe07c"></path><path d="M119 0C117.6 23.7 116.2 47.5 103 59.5C89.9 71.5 65.1 71.7 46 79.7C26.9 87.6 13.4 103.3 0 119L0 0Z" fill="#ffd440"></path><path d="M59.5 0C58.8 11.9 58.1 23.7 51.5 29.7C45 35.7 32.6 35.9 23 39.8C13.4 43.8 6.7 51.7 0 59.5L0 0Z" fill="#ffce05"></path></g></svg>